<?xml version="1.0"?>
<svg width="475.085" height="475.085" xmlns="http://www.w3.org/2000/svg" xmlns:svg="http://www.w3.org/2000/svg" enable-background="new 0 0 475.085 475.085" version="1.1" xml:space="preserve">
 <g class="layer">
  <title>Layer 1</title>
  <g id="svg_1">
   <g id="svg_2">
    <path d="m250.54,324.53c23.45,0 43.51,-8.34 60.2,-25.01c16.69,-16.67 25.04,-36.72 25.04,-60.14l0,-136.24c0,-23.41 -8.34,-43.46 -25.04,-60.13c-16.69,-16.67 -36.76,-25.01 -60.2,-25.01c-23.44,0 -43.51,8.34 -60.2,25.01c-16.7,16.67 -25.04,36.72 -25.04,60.14l0,136.23c0,23.42 8.35,43.47 25.04,60.14c16.69,16.66 36.76,25.01 60.2,25.01z" id="svg_3"/>
    <path d="m398.92,193.35c-3.36,-3.37 -7.37,-5.06 -11.98,-5.06c-4.62,0 -8.61,1.69 -11.99,5.06c-3.37,3.37 -5.06,7.36 -5.06,11.97l0,34.06c0,32.82 -11.68,60.89 -35.04,84.21c-23.35,23.33 -51.46,35 -84.32,35c-32.85,0 -60.96,-11.67 -84.33,-35c-23.35,-23.32 -35.03,-51.39 -35.03,-84.21l0,-34.06c0,-4.6 -1.69,-8.59 -5.06,-11.97c-3.38,-3.37 -7.37,-5.06 -11.99,-5.06c-4.62,0 -8.61,1.69 -11.99,5.06c-3.38,3.37 -5.06,7.36 -5.06,11.97l0,34.06c0,39.21 13.1,73.31 39.29,102.31c26.19,29 58.56,45.63 97.11,49.88l0,35.13l-68.2,0c-4.62,0 -8.61,1.7 -11.99,5.06c-3.38,3.37 -5.07,7.36 -5.07,11.98c0,4.6 1.69,8.6 5.07,11.98c3.38,3.36 7.37,5.05 11.99,5.05l170.5,0c4.61,0 8.61,-1.69 11.98,-5.05c3.38,-3.37 5.07,-7.37 5.07,-11.98c0,-4.61 -1.69,-8.6 -5.07,-11.98c-3.37,-3.36 -7.36,-5.06 -11.98,-5.06l-68.19,0l0,-35.13c38.54,-4.25 70.9,-20.88 97.1,-49.88c26.19,-29 39.3,-63.1 39.3,-102.31l0,-34.06c0,-4.6 -1.7,-8.59 -5.08,-11.97z" id="svg_4"/>
   </g>
  </g>
  <g id="svg_5"/>
  <g id="svg_6"/>
  <g id="svg_7"/>
  <g id="svg_8"/>
  <g id="svg_9"/>
  <g id="svg_10"/>
  <g id="svg_11"/>
  <g id="svg_12"/>
  <g id="svg_13"/>
  <g id="svg_14"/>
  <g id="svg_15"/>
  <g id="svg_16"/>
  <g id="svg_17"/>
  <g id="svg_18"/>
  <g id="svg_19"/>
 </g>
</svg>